<svg xmlns="http://www.w3.org/2000/svg" width="155.495" height="203.449" viewBox="0 0 155.495 203.449">
  <g id="Grupo_13" data-name="Grupo 13" transform="translate(162.856 -62.871)">
    <path id="path3791-7" d="M-108.6,245.648c-2.971,5.7-2.833,11.721-2.289,17.308L-134.333,251.6-138,260.025l-4.029-2.93-5.861-8.425-1.465-8.425h-4.762l2.2-4.4-1.1-8.791.366-11.722L-161.439,219h0" fill="none" stroke="#fff" stroke-width="3"/>
    <path id="path4600-7" d="M-157.749,116.568l.431,5.454,6.777.916.824,5.861s8.516-4.4,8.883-4.67,2.381,3.114,2.381,3.114l7.326-.733c9.608-4.352,13.587-10.483,17.582-19.322l-1.534-3.422-4.533-6.993-4.662-9.972-3.465-.034" fill="none" stroke="#000" stroke-width="3"/>
    <path id="path4602-3" d="M-137.483,92.627l-11.785,10.62-3.379-5.957" fill="none" stroke="#000" stroke-width="1"/>
    <path id="path4604-0" d="M-156.433,112.773l7.432-9.6,4.653,7.969,4.015,3.367c4.747-2.968,9.179-7.246,11.979-9.778L-137.4,93.254c-2.054-2.608,9.067,4.712,12.994,7.661l3.626,2.59-8.936,4.921-1.036,6.864-2.979.907-16.318-1.036,1.134-12.237" fill="none" stroke="#000" stroke-width="1"/>
    <path id="path4606-3" d="M-146,107.978l6.057-7.58s4.547-1.032,3.367.389c-.615.741-2.118,5.422-3.108,8.159-.391,1.079,2.979-.907,2.979-.907" fill="none" stroke="#000" stroke-width="1"/>
    <path id="path4608-6" d="M-148.912,120.924l-7.618-8.866,7.551-8.409" fill="none" stroke="#000" stroke-width="1"/>
    <path id="path4610-0" d="M-149.4,120.73s12.211-.571,18.147-.453c5.56-5.727,11.6-10.936,17.629-12.918" fill="none" stroke="#000" stroke-width="1"/>
    <path id="path4612-4" d="M-101.874,248.34c-31.465-11.618-29.241-41.77-31.336-65.447,8.548-12.288,19.366-25.046,25.383-37.039l2.59-6.734c7.138,11.954,21.067,14.76,23.311,15.282,17.548,2.645,30.846,5.106,46.363,11.4l3.626,8.288c3.854,20.944-3.263,41.975-9.843,60.091l-2.525,7.656,2.087-.312,14.684-18.74-1.813,17.872C-17.559,219.7-18.971,209-19.736,187.945" fill="none" stroke="#000" stroke-width="3"/>
    <path id="path4616-6" d="M-134.44,251.532l-8.612-1.3s3.7-3.961,4.4-6.475c1.716-6.164-1.036-19.167-1.036-19.167" fill="none" stroke="#000" stroke-width="3"/>
    <path id="path4618-1" d="M-152.892,237.8l13.428-9.12" fill="none" stroke="#000" stroke-width="3"/>
    <path id="path4620-5" d="M-151.753,236.5c4.357-8.327,6.291-17.07,8.183-26.151,1.478-8.3,6.479-21.56,10.421-26.945" fill="none" stroke="#000" stroke-width="3"/>
    <path id="path4624-09" d="M-152.511,168.164c2.482,8.5,4.027,19.325,6.351,26.126l3.959,10.3" fill="none" stroke="#000" stroke-width="3"/>
    <path id="path4626-7" d="M-127.485,141.134c-16.055,13.068-14.211,44.088-14.932,62.635" fill="none" stroke="#000" stroke-width="3"/>
    <path id="path4628-30" d="M-68.715,125.91l5.18,3.108c8.972,9.837,19.458,12.518,29.01,19.555,8.892,8.652,11.791,16.678,15.023,27.585l-.259,2.331L-30.9,168.647l-4.669-2.878" fill="none" stroke="#000" stroke-width="3"/>
    <path id="path3789-15" d="M-161.439,219c3.3-9.524,6.227-17.949,6.227-17.949l2.2-9.89,1.465-12.088-1.1-12.454-.733-4.029.733-8.059,1.465-6.593c-4.441-9.985-8.067-21.888-8.895-30.814l2.3-.322,1.465-4.4-4.4-6.96,8.059-8.059V93.725l14.286-8.425,2.93,4.4a27.04,27.04,0,0,0,2.867-.482c1.6-.342,4-1.108,4.825-2.448,1.221-1.988-1.291-4.695-.733-6.96.632-2.565,2.721-4.551,4.4-6.593.876-1.068,1.586-2.613,2.93-2.93,1.127-.266,2.194,1.453,3.3,1.1,1.748-.562,1.592-3.634,3.232-4.46,1.982-1,6.658.065,6.658.065s5.347,2.067,6.593,4.4c.173.323-.259.84,0,1.1,1.122,1.122,3.239-.447,4.762,0,1.95.573,3.509,2.069,5.128,3.3,1.171.889,3.3,2.93,3.3,2.93l.366,1.1,4.4.733,1.1-2.2a10.951,10.951,0,0,0,.733-3.663,8.186,8.186,0,0,0-1.1-2.2c-.513-1.088-1.661-2.11-1.465-3.3.352-2.131,2.252-4.5,4.4-4.762,3.327-.414,6.613,2.673,8.425,5.494a10.149,10.149,0,0,1,1.1,7.326c-.469,2.256-3.263,5.606-3.263,5.606A38.742,38.742,0,0,0-66.2,80.172c1.646-.963,2.583-4.255,4.4-3.663,1.436.469,1.1,4.4,1.1,4.4s-1.994,4.938-3.663,6.96c-.5.6-7.715,3.337-7.715,3.337,12.6,3.565,27.481,14.451,38,24.3,6.986-1.881,15.145-1.578,22.344-.916-1.819,7.346-4.044,14.72-7.9,20.565-.282.428,1.218,2.937,2.563,6.45C-3.7,177.983-9.684,224.732-14,261.491c-3.088-.8-4.742-20.991-6.044-25.641-7.42,11.412-10.758,19.2-19.78,27.472-1-6.425-1.041-12.163-2.2-17.949l-4.4,2.656,2.295-6.575a25.355,25.355,0,0,1-4.493,4.285c-18.229,12.424-35.6,8.669-54.067,2.358" fill="rgba(0,0,0,0)" stroke="#fff" stroke-width="3"/>
    <path id="path4646-2" d="M-151.235,147.819C-150.1,136.251-144.813,130.9-139.9,125" fill="none" stroke="#000" stroke-width="3"/>
    <path id="path4652-8" d="M-123.3,88.827a71.753,71.753,0,0,1,5.452-17.446" fill="none" stroke="#000" stroke-width="3"/>
    <path id="path4654-1" d="M-120.9,94.022c2.069-11.589,7.863-19.382,19.532-21.542" fill="none" stroke="#000" stroke-width="3"/>
    <path id="path4656-0" d="M-119.378,97.131c3.044-6.7,7.674-11.363,12.847-16.354,4.212-2.79,8.872-4.424,13.563-6.177" fill="none" stroke="#000" stroke-width="3"/>
    <path id="path4658-2" d="M-117.114,100.625l6.7-4.631c6.778-8.163,13.394-11.884,22.914-16.137" fill="none" stroke="#000" stroke-width="3"/>
    <path id="path4660-6" d="M-117.114,100.625c12.557-7.329,22.934-9.436,36.484-10.2,5.646,1.848,9.117.775,14.43-1.1" fill="none" stroke="#000" stroke-width="3"/>
    <path id="path4662-0" d="M-79.433,90.628l-3.658-6.419,10.81-1.689" fill="none" stroke="#000" stroke-width="3"/>
    <path id="path4664-9" d="M-82.53,84.133l-.887-3.594" fill="none" stroke="#000" stroke-width="3"/>
    <path id="path4666-0" d="M-95.135,221.745c12.042,2.246,23.278.227,34.114-3.6-2.062,6.834-4.142,12.069-7.117,16.061-6.235,8.366-19.914,7.278-25.184-9.873Z" fill="none" stroke="#000" stroke-width="3"/>
    <path id="path4668-0" d="M-87.1,222.649a11.017,11.017,0,0,0-.646,6.9c-1.971-.277-3.872-3.29-4.855-4.928a8,8,0,0,0-1.211-2.559" fill="none" stroke="#000" stroke-width="1"/>
    <path id="path4670-6" d="M-69.866,220.92l1.345,2.379c.7,2.5,1.8,6.351,2.082,8.269" fill="none" stroke="#000" stroke-width="3"/>
    <path id="path4685-9" d="M-121.425,174.734c6.924-5.989,13.626-5.669,20.98-4.274l4.4,1.166c1.647.787,4.5,1.491,5.116,1.3.092-2.548-4.34-3.7-4.921-4.468-5.078-2.34-14.457-2.929-20.527-.194-2.052,1.7-7.172,5.528-5.051,6.475Z" fill="none" stroke="#000" stroke-width="3"/>
    <path id="path4687-5" d="M-58.325,171.023c3.948-2.377,11-3.35,15.5-2.521,3.749,1.187,7.417,3.4,10.556,4.83-1.132-4.179-3.7-4.623-7.5-6.186-15.6-6.155-31.84,12.155-18.557,3.876Z" fill="none" stroke="#000" stroke-width="3"/>
    <path id="path4689-8" d="M-119.6,199.942c5.6,3.734,5.63,6.831,24.85,5.166" fill="none" stroke="#000" stroke-width="3"/>
    <path id="path4691-7" d="M-61.622,200.96c8.165,3.668,19.558,4.236,28.022-2.747l2.1-1.661" fill="none" stroke="#000" stroke-width="3"/>
    <path id="path4695-3" d="M-90.537,190.729l-.712-4.144c-6.671-8.41-17.174-14.507-25.966-7.511-2.047,1.8-2.7,2.719-4.727,4.533l-8.612-.583c2.5,1.155,4.985,2.331,7.447,3.561l1.554,6.152c-.585-7.226,1.19-10.338,5.7-13.339,10.129-3.966,15.763,1.462,22.469,7.9Z" fill="none" stroke="#000" stroke-width="3"/>
    <path id="path4697-8" d="M-92.711,180.767l3.3,4.258" fill="none" stroke="#000" stroke-width="1"/>
    <path id="path4699-7" d="M-63.636,182.049-59.1,176.6" fill="none" stroke="#000" stroke-width="1"/>
    <path id="path4701-3" d="M-113.589,178.62c-5.141,9.3-1.791,18.4-.14,25.348" fill="none" stroke="#000" stroke-width="3"/>
    <path id="path4703-3" d="M-97.984,205.3l2.72-3.756c2.609-5.051,2.514-9.255,1.952-14.156" fill="none" stroke="#000" stroke-width="3"/>
    <path id="path4705-0" d="M-116.061,186.022c.936,5.09,1.494,10.352,6.453,6.1,2.813-3.52,3.741-8.758,4.095-13.516" fill="#fff" stroke="#000" stroke-width="3"/>
    <path id="path4707-2" d="M-63.682,189.65c2.433-10.035,10.8-14.771,21.154-14.606,2.675.164,4.3,1.107,6.593,2.335,2.665,1.562,3.669,3.63,5.037,6.261-7.287-4.844-12.275-7.019-20.742-5.345-2.36.5-5.381,2.727-6.868,4.4a73.328,73.328,0,0,0-5.174,6.96Z" fill="none" stroke="#000" stroke-width="3"/>
    <path id="path4711-4" d="M-53.888,203.255c-2.746-3.286-3.146-7.254-3.236-10.778.468-5.774,1.841-7.562,2.362-12.831" fill="none" stroke="#000" stroke-width="3"/>
    <path id="path4713-3" d="M-33.913,181.878c.461,6.942-1.777,13.423-3.865,18.948" fill="none" stroke="#000" stroke-width="3"/>
    <path id="path4715-6" d="M-55.928,185.732c-.027,1.748-.541,7.164,2.438,7.731,7.6-1.313,7.3-13.33,7.394-15.718" fill="#fff" stroke="#000" stroke-width="3"/>
    <path id="path4784-0" d="M-29.087,120.286l11.407-.609c-.491,2.389-.839,4.789-1.465,7.143a13.811,13.811,0,0,1-2.778,4.32" fill="none" stroke="#000" stroke-width="3"/>
    <path id="path4786-3" d="M-149.276,139.071c-2.245-5.558-4.389-11.117-5.276-16.675" fill="none" stroke="#000" stroke-width="3"/>
    <path id="path1943" d="M-151.965,230.531c-.453-3.876-.461-4.143-.29-9.9.1-3.252.135-5.952.086-6a42.082,42.082,0,0,0-4.076,1.571c-2.193.913-4.019,1.628-4.058,1.589s1.213-3.773,2.784-8.3c2.6-7.483,2.954-8.663,3.944-13.078,1.369-6.106,2.633-15.555,2.486-18.59l-.089-1.831.434,1.923c.239,1.058.887,3.984,1.442,6.5a80.064,80.064,0,0,0,4.394,14.757c1.693,4.432,2.07,5.587,1.937,5.937-.091.239-.71,2.974-1.375,6.079-2,9.347-3.3,14.082-5.119,18.718a42.38,42.38,0,0,1-2,4.6c-.021,0-.247-1.793-.5-3.984Z" fill="#e84f0c"/>
    <path id="path1947" d="M-139.995,257.818c-1.609-1.182-1.781-1.381-4.093-4.714-1.328-1.914-2.6-3.768-2.837-4.121-.326-.495-.592-1.607-1.165-4.875-.408-2.329-.742-4.286-.742-4.35a9.719,9.719,0,0,0-2.106-.116,8.128,8.128,0,0,1-2.1-.137c.045-.8.943-1.52,7.013-5.644a71.7,71.7,0,0,1,6.524-4.175c.532.584.958,10.012.563,12.479a10.84,10.84,0,0,1-.682,2.383,26.708,26.708,0,0,1-3.547,4.9c-.7.776-.885,1.083-.7,1.178.138.071,2.126.4,4.418.74a28.472,28.472,0,0,1,4.167.773c0,.2-2.752,6.581-2.919,6.774a6.435,6.435,0,0,1-1.8-1.1Z" fill="#e84f0c"/>
    <path id="path1949" d="M-123.715,86.577c-.121-.382-.237-.411-1.629-.411h-1.5l-.03-.87a11.732,11.732,0,0,0-.533-2.427,10.605,10.605,0,0,1-.508-2.381c-.008-1.114.97-2.936,2.653-4.945.717-.856,1.761-2.159,2.319-2.9a7.549,7.549,0,0,1,1.539-1.61c.5-.257.583-.238,1.606.338l1.082.61-.366.817a82.238,82.238,0,0,0-4.092,12.355c-.306,1.365-.444,1.726-.541,1.419Z" fill="#e84f0c"/>
    <path id="path1951" d="M-121.962,90.336l-.762-1.7.442-2.106c1.136-5.409,4.092-13.732,5.335-15.018a10.4,10.4,0,0,0,1.337-2.106c.977-1.995,1.179-2.148,2.952-2.251a11.65,11.65,0,0,1,6.523,1.34c2.11,1.038,4.364,2.8,4.183,3.272a2.3,2.3,0,0,1-1.136.473,27.316,27.316,0,0,0-5.8,2.17q-8.581,4.415-11.722,15.692c-.28,1.007-.527,1.853-.548,1.88a14.673,14.673,0,0,1-.8-1.648Z" fill="#e84f0c"/>
    <path id="path1953" d="M-119.845,94.842l-.449-.892.431-1.923c2.223-9.916,7.748-16.15,16.34-18.437,1.5-.4,1.834-.432,2.484-.25a4.091,4.091,0,0,0,2.2-.089,7.5,7.5,0,0,1,2.015-.193c.767.146,2.565,1.2,2.369,1.386A23.633,23.633,0,0,1-96.9,75.463a57.692,57.692,0,0,0-8.265,3.792c-1.472.868-2.18,1.483-4.933,4.283-4.281,4.354-6.4,7.035-8.442,10.663l-.861,1.533Z" fill="#e84f0c"/>
    <path id="path1955" d="M-117.856,98.4a4.171,4.171,0,0,1-.745-1.582,47.364,47.364,0,0,1,3.133-5.27A52.25,52.25,0,0,1-109.29,84.4c3.233-3.3,3.815-3.743,7.173-5.416,1.568-.781,6.055-2.639,8.092-3.35l.949-.331,1.026.792a22.34,22.34,0,0,1,3.577,3.4,9.527,9.527,0,0,1-2.152,1.165A85.362,85.362,0,0,0-99,85.127,52.139,52.139,0,0,0-109.718,94.3a20.526,20.526,0,0,1-3.967,3.224c-1.729,1.208-3.184,2.2-3.234,2.2a9.129,9.129,0,0,1-.936-1.321Z" fill="#e84f0c"/>
    <path id="path1957" d="M-109.535,95.895a31.4,31.4,0,0,1,2.518-2.724c4.644-4.716,8.554-7.409,15.958-10.992l3.581-1.733,1.73.288a5.992,5.992,0,0,1,1.857.494,7.151,7.151,0,0,1,.357,1.232c.2.916.2,1.05-.08,1.252s-.151.5,1.338,3.126c.906,1.595,1.63,2.917,1.608,2.939s-1.189.128-2.6.237c-10.494.811-17.993,2.5-25.587,5.754-.378.162-.687.219-.687.128Z" fill="#e84f0c"/>
    <path id="path1959" d="M-82.152,83.19c-.043-.126-.207-.743-.365-1.371l-.287-1.142.546-1.081a14.678,14.678,0,0,0,1.294-4.537,13.177,13.177,0,0,0-1.988-4.177,2.525,2.525,0,0,1-.138-2.959,4.427,4.427,0,0,1,4.079-2.892,7.111,7.111,0,0,1,4.5,2.092c3.029,2.7,4.312,5.762,3.817,9.091-.326,2.2-2.39,5.779-3.451,5.994-.671.136-7.569,1.209-7.774,1.209-.088,0-.2-.1-.238-.229Z" fill="#e84f0c"/>
    <path id="path1961" d="M-78,90.5l-.972-.211-1.544-2.74a15.029,15.029,0,0,1-1.409-2.855,52.918,52.918,0,0,1,6.982-1.011c.248.153,4.373-1.023,6.523-1.859a8.025,8.025,0,0,0,4.295-2.986c1-1.317,1.551-1.827,1.969-1.827.449,0,.812,1.1.839,2.533.025,1.357-.01,1.48-1.028,3.6-1.386,2.889-2.357,4.35-3.394,5.107a22.181,22.181,0,0,1-6.289,2.2A18.627,18.627,0,0,1-78,90.5Z" fill="#ffe8d0"/>
    <path id="path1965" d="M-77.965,90.443c-.833-.184-1.348-.778-2.516-2.9A12.493,12.493,0,0,1-81.8,84.714a40.581,40.581,0,0,1,4.359-.7c4.274-.56,9.138-1.94,11.163-3.166a11.233,11.233,0,0,0,2.307-2.157c1.259-1.566,2.032-1.857,2.4-.9,1.033,2.692-2.013,9.3-4.985,10.816-3.223,1.644-8.465,2.489-11.408,1.839Z" fill="#e84f0c"/>
    <path id="path1975" d="M-118.668,171.09a10.2,10.2,0,0,1,5.8-3.323c1.693-.464,2.718-.551,6.418-.547,3.887,0,4.692.082,6.864.662,3.265.872,8.3,3.631,7.711,4.225a8.984,8.984,0,0,1-2.72-.615c-6.113-1.947-9.616-2.508-14.5-2.32a17.356,17.356,0,0,0-9.274,2.612c-1,.6-1.93,1.121-2.072,1.165a11.435,11.435,0,0,1,1.768-1.858Z" fill="rgba(0,0,0,0.96)"/>
    <path id="path1977" d="M-122.452,186.817c-.136-.678-.44-.905-2.437-1.823l-2.282-1.048,3.041.03,3.031.03s-.277.807-.6,1.793c-.547,1.649-.607,1.73-.749,1.018Z" fill="rgba(0,0,0,0.96)"/>
    <path id="path1981" d="M-94.017,185.883a43.539,43.539,0,0,0-7.916-6.372c-3.807-2.137-7.053-2.526-12.158-1.456-.382.08-.217-.066.4-.356,4.551-2.131,10.193-.952,15.851,3.311,2.6,1.96,5.909,5.441,6.1,6.415a3.29,3.29,0,0,1,.1.748c-.023.012-1.091-1.018-2.373-2.29Z" fill="rgba(0,0,0,0.96)"/>
    <path id="path1985" d="M-60.864,171.319a33.581,33.581,0,0,1,8.048-3.925c2.056-.629,2.729-.708,6.068-.716,3.451-.008,3.922.049,5.811.71,3.147,1.1,5.636,2.346,6.474,3.242.417.446.7.87.624.944a16.369,16.369,0,0,1-3.089-1.255c-5.427-2.55-5.624-2.6-9.56-2.607-5.243-.005-9.12.958-12.9,3.2-1.991,1.183-2.632,1.359-1.474.4Z" fill="rgba(0,0,0,0.96)"/>
    <path id="path1987" d="M-34.833,180.49c-7.047-4.236-16.243-4.482-21.45-.573-.472.355-.92.583-1,.508-.219-.219,1.972-1.727,3.7-2.547,3.494-1.66,8.985-2.6,12.025-2.069a16.882,16.882,0,0,1,6.059,2.645c1.057.759,3.022,3.118,2.557,3.07a15.323,15.323,0,0,1-1.894-1.034Z" fill="rgba(0,0,0,0.96)"/>
    <path id="path1991" d="M-61.657,185.722a15.671,15.671,0,0,1,2.32-3.6,12.279,12.279,0,0,1,2.127-2.044c.042,0,.027.049-.033.11-.193.193-.119.281.188.22l.3-.059-.366.3a24.4,24.4,0,0,0-3.887,4.287c-.65.883-.646.877-.646.791Z" fill="rgba(0,0,0,0.96)"/>
    <path id="path1993" d="M-152.592,143.142a112.857,112.857,0,0,1-6.191-20.815c-.34-1.863-.744-4.652-.684-4.713a4.091,4.091,0,0,1,.652-.118c.611-.082.617-.081.617.134,0,.292.368,4.821.394,4.847s.634.106,1.385.21,1.372.2,1.381.213.109.5.222,1.077a76.434,76.434,0,0,0,4.178,13.155l.761,1.937-.318.982a34.957,34.957,0,0,0-1.092,4.334c-.126.681-.244,1.254-.262,1.272s-.488-1.113-1.043-2.513Z" fill="rgba(0,0,0,0.96)"/>
    <path id="path1997" d="M-66.412,229.088c-.119-.516-.525-2.072-.9-3.457a11.955,11.955,0,0,0-1.226-3.48l-.54-.962.527-.151c.29-.083,1.145-.325,1.9-.537,1.144-.322,4.309-1.292,4.686-1.437.213-.082-1.378,4.6-2.419,7.116-.495,1.2-1.722,3.846-1.78,3.846a8.563,8.563,0,0,1-.246-.939Z" fill="rgba(0,0,0,0.96)"/>
    <path id="path2001" d="M-150.268,134.953c-1.769-4.656-3.784-11.47-3.482-11.772a11.531,11.531,0,0,1,2.663.353c.029.029.222,1.323.429,2.875s.409,2.925.451,3.053c.072.223,1.784-.611,7.456-3.636a7.262,7.262,0,0,1,1.969-.877,19.627,19.627,0,0,1-1.709,2.227,45.013,45.013,0,0,0-6.368,9.378,4.119,4.119,0,0,1-.427.827c-.034,0-.476-1.092-.983-2.427Z" fill="#ffe8d0"/>
    <path id="path2007" d="M-34.205,115.468c8.816,6.36,10.343,13.031,14.465,20.1" fill="none" stroke="#000" stroke-width="3"/>
    <path id="path2009" d="M-39.471,259.868c-.158-.954-.526-4.065-.819-6.914-.654-6.365-1.039-8.547-1.509-8.547a4.006,4.006,0,0,0-1.367.761c-1.525,1.154-1.737.962-1.129-1.02.366-1.191.875-1.813,1.486-1.813.584,0,3.289-3.013,7.272-8.1,3.489-4.454,6.44-7.807,6.559-7.45a53.721,53.721,0,0,1-.42,7.112c-.665,6.767-.347,8.525,1.135,6.262,2.854-4.36,6.782-14.173,8.238-20.578,1.784-7.848,1.978-31.639.258-31.639-.469,0-.568,2.691-.407,11.043.166,8.546.022,12.254-.634,16.4a63.951,63.951,0,0,1-5.453,17.486c-1.819,3.525-1.909,3.092-1.03-4.989a44.249,44.249,0,0,0,.389-6.042c-.112-.563-2.939,2.655-7.942,9.04-4.272,5.452-7.835,9.712-7.917,9.467a92.427,92.427,0,0,1,2.984-9.461c5.844-16.816,8.319-26.911,9.32-38.024.758-8.414-.008-17.472-1.811-21.41-.706-1.542-1.283-2.892-1.283-3,0-.838,1.931.583,7.55,5.556,3.575,3.164,6.6,5.65,6.728,5.525.735-.735.15-4.933-1.279-9.173a55.521,55.521,0,0,0-9.209-17.609c-3.7-4.63-5.872-6.245-15.705-11.7-7.141-3.96-10.922-6.5-15.023-10.09-3.989-3.493-7.613-5.863-8.308-5.433-.877.542-.545,1.023,1.428,2.072a34.976,34.976,0,0,1,5.051,3.806c4.505,4.011,8.443,6.7,16.075,10.958C-37.188,147.425-34.934,149-32.2,152.2c4.94,5.787,7.44,10.37,10.264,18.81,1.02,3.05,1.855,5.676,1.855,5.835a51.713,51.713,0,0,1-5.31-4.339,89.346,89.346,0,0,0-7.6-6.058c-6.291-3.927-27.421-9.666-44.849-12.182-11.119-1.605-19.852-6.19-24.915-13.081-1.309-1.781-2.451-3.312-2.538-3.4a24.006,24.006,0,0,0-1.819,4.144c-2.644,6.862-6.582,13.072-18.773,29.607-7.482,10.148-10.1,14.5-13.473,22.36l-2,4.662.275-11.138c.538-21.8,4.009-34.884,11.364-42.825,1.638-1.769,2.726-3.341,2.435-3.521-.922-.57-2.452.656-4.977,3.988-6.8,8.975-9.8,21.591-10.51,44.171l-.341,10.879-1.649-4.464c-1.464-3.962-3.957-14.091-6.936-28.171-1.059-5.006-.991-8.473.295-15.023.391-1.994,1.094-5.6,1.561-8.014,1.061-5.481,2.624-8.815,6.619-14.116,2.806-3.725,3.2-4.067,3.794-3.262.572.782,1.2.852,4.8.533a13.865,13.865,0,0,0,7.349-2.258c4.454-2.628,9.555-8.255,12.385-13.663l2.318-4.429L-114.2,104.1c-1.264-2.451-1.479-3.263-.975-3.681,1.406-1.167,9.938-4.787,14.181-6.016,12.465-3.612,26.72-3.812,34.287-.482a97.966,97.966,0,0,1,16.571,9.63A166.829,166.829,0,0,1-35.08,115.624c6.932,6.2,8.544,8.356,13.479,18.036,5.279,10.354,8.523,21.894,10.673,37.964,1.138,8.5,1.3,39.98.272,51.544-.912,10.221-3.739,35.927-3.978,36.166-.4.4-1.375-4.088-2.87-13.2-.849-5.176-1.731-9.917-1.96-10.536-.528-1.429-.357-1.646-6.323,8.032-4.575,7.422-10.041,14.967-12.328,17.016-1.055.945-1.072.935-1.355-.777Z" fill="#e84f0c"/>
    <path id="path2011" d="M-22.685,128.556a51.083,51.083,0,0,0-2.57-4.539l-1.873-2.988,1.324-.219a36.507,36.507,0,0,1,4.3-.223l2.974,0-.629,3.078c-.5,2.471-2.179,6.445-2.714,6.445a7.955,7.955,0,0,1-.809-1.551Z" fill="#ffe8d0"/>
    <path id="path1795" d="M-123.177,256.149c-7.884-3.848-11.747-5.454-13.728-5.705-4.772-.606-4.692-.507-2.738-3.409,2.084-3.1,2.573-5.833,2.115-11.837-.521-6.833-1.343-10.93-2.192-10.93-.548,0-.66.484-.449,1.943l.281,1.943-4.773,3.229a45.669,45.669,0,0,1-4.908,3.094,37.916,37.916,0,0,1,1.6-4.783c1.638-4.389,2.37-7.134,5.725-21.484a98.333,98.333,0,0,1,6.856-19.424l1.571-3.106.346,4.66c1.712,23.043,3.882,32.691,9.309,41.4a44.791,44.791,0,0,0,11.831,12.182l2.761,1.748-.991,2.9a38.616,38.616,0,0,0-1.317,7.919l-.326,5.02Z" fill="#e84f0c"/>
    <path id="path1797" d="M-112.842,202.234a23.567,23.567,0,0,1-1.543-5.071c-.529-2.8-.348-3.187,1.285-2.76,3.352.877,8.331-6.8,8.358-12.89.009-2.095,1.437-1.524,6.036,2.412,3.9,3.337,4.331,4.175,4.331,8.391a22.9,22.9,0,0,1-1.672,8.208c-1.662,3.5-1.716,3.524-8.77,3.524-5.716,0-7.278-.353-8.024-1.813Z" fill="#92379c"/>
    <path id="path1799" d="M-53.178,201.781c-2.342-1.77-3.863-8.7-1.732-7.887,4.325,1.647,9.23-4.5,9.23-11.571,0-3.665,2.289-4.154,7.3-1.561,2.571,1.329,3.057,2.206,3.057,5.514,0,5.136-2.855,13.418-5.025,14.58-3.365,1.8-10.951,2.348-12.833.925Z" fill="#92379c"/>
    <path id="path1801" d="M-20.46,132.7l-.629-1.395,1.243-1.847a14.562,14.562,0,0,0,2.038-5.58c.437-2.053.795-3.988.795-4.3,0-.5-.68-.536-5.647-.3l-5.647.263-2.056-1.775c-1.87-1.614-1.987-1.8-1.3-2.057,1.731-.641,9.415-1.1,14.158-.845l4.925.264-.251,1.152c-.977,4.491-4.892,14.806-6.482,17.075-.5.721-.544.7-1.152-.649Z" fill="rgba(0,0,0,0.96)"/>
    <path id="path1803" d="M-82.612,237.32c-1.891-1.04-6.96-5.864-6.96-6.625,0-.321.682-.584,1.515-.584,1.159,0,1.41-.33,1.069-1.4a7.258,7.258,0,0,1,.03-3.3c.411-1.637.868-1.894,3.369-1.894a68.674,68.674,0,0,0,8.075-.8c5.967-.926,5.942-.943,7.278,4.98.745,3.3.693,4.063-.388,5.713-2.713,4.14-9.912,6.154-13.988,3.914Z" fill="#e16863"/>
    <path id="path1805" d="M-87.374,251.641c-19.887-4.316-30.9-11.546-37.272-24.46-3.63-7.362-5.554-15.913-6.656-29.594-1.249-15.5-1.919-13.271,8.09-26.875,9.3-12.641,16.372-23.84,17.193-27.231a8.514,8.514,0,0,1,.628-2.015c.077,0,1.972,1.773,4.209,3.941a38.552,38.552,0,0,0,19.153,9.634c2.9.556,9.8,1.859,15.335,2.9a160.381,160.381,0,0,1,26.41,6.976c5.256,1.966,5.557,3.175.343,1.373a25.757,25.757,0,0,0-6.516-1.353c-5.9-.053-17.476,5.045-17.476,7.695,0,1.575,1.768,1.318,6.068-.884,2.987-1.529,5.1-2.011,9.683-2.2,5.407-.229,6.23-.063,10.623,2.14,4.349,2.18,4.783,2.609,5,4.935.232,2.445.187,2.5-1.126,1.31C-42.321,170.1-60.57,175.9-63.9,187.53c-1.022,3.563.631,2.855,4.238-1.815,1.741-2.254,3.281-3.981,3.423-3.839a22.639,22.639,0,0,1-.85,5.016,25.457,25.457,0,0,0,.216,12.929c.511,2.036.051,2.116-3.574.624-.874-.36-1.282-.19-1.282.534,0,1.337,4.81,2.826,10.676,3.307a28.618,28.618,0,0,0,15.626-3.672l2.492-1.529-.508,3.828c-.661,4.979-4.638,18.589-8.8,30.128-2.443,6.764-3.841,9.588-5.35,10.8-3.406,2.745-11.3,6.584-16.069,7.814-5.532,1.427-17.082,1.418-23.7-.019ZM-71.9,238.488a17.715,17.715,0,0,0,4.24-3.77c2.288-2.776,6.33-11.581,7.113-15.495l.425-2.123-5.978,1.731c-8.616,2.5-17.571,3.47-24.207,2.634A46.429,46.429,0,0,0-96,220.939c-.385.321,5.148,11.044,6.908,13.385A13.877,13.877,0,0,0-71.9,238.488ZM-94.7,205.4c.2-.221,0-.532-.438-.692-.512-.185-.18-1.522.916-3.687a15.7,15.7,0,0,0,1.72-7.383v-3.986l1.516,1.73,1.516,1.73-.455-3.3a10.475,10.475,0,0,0-1.15-3.993c-1.148-1.149-.783-2.12.422-1.121,1.851,1.536,2.081.22.379-2.17-1.822-2.559-3.293-2.976-2.58-.731.4,1.245-.124,1.048-2.979-1.131-4.662-3.559-7.051-4.718-10.766-5.228q-6.744-.924-12.469,4.118c-3.106,2.734-3.627,2.93-7.795,2.93-2.456,0-4.466.261-4.466.58s1.781,1.453,3.958,2.521c3.6,1.765,4,2.211,4.461,4.918.638,3.777,1.512,3.269,2.111-1.226.486-3.642,2.8-8.258,4.145-8.258.513,0,.578.934.194,2.747a41.211,41.211,0,0,0,.445,14.55c.924,3.346.562,3.887-1.407,2.1-1.029-.932-1.721-1.111-2.249-.584-1.035,1.035,5.282,5.188,8.777,5.77a26.756,26.756,0,0,1,3.375.729c1,.395,12.363-.439,12.821-.941Zm33.979-25.427c1.778-2.332,2.439-4.078,1.542-4.078-.731,0-4.709,4.774-4.73,5.678-.038,1.615,1.217.985,3.188-1.6Zm-47.8-9.1a28.367,28.367,0,0,1,10.8,1.282c6.577,2,7.578,1.983,7.281-.106-.167-1.175-1.448-2.255-4.462-3.762a28.668,28.668,0,0,0-17.97-1.951c-5.661,1.358-11.352,6.9-9.247,9,.233.233,2.1-.619,4.148-1.893,3.186-1.98,4.553-2.353,9.449-2.575Z" fill="#ffe8d0"/>
    <path id="path1807" d="M-36.755,199.68c0-.018.229-.672.508-1.452a51.96,51.96,0,0,0,2.6-9.981,37.71,37.71,0,0,0,.341-5.105.829.829,0,0,1-.006-.389c.026,0,.452.263.947.584l.9.584.048,1.087c.058,1.3-.068,5.828-.207,7.447-.109,1.266-.37,3.8-.395,3.82-.009.008-.675.535-1.481,1.171a14.836,14.836,0,0,1-3.251,2.235Z" fill="#ffe8d0"/>
  </g>
</svg>
